
<style>
	svg polygon,
	svg polyline {
		fill: rgba(255, 255, 255, 0.5);
		stroke: #034EA2;
		transition: all .3s;
	}

	svg a:hover polygon,
	svg a:hover polyline {
		fill: rgba(255, 255, 255, 0.8);
		transition: all .3s;
	}
</style>
<svg 
viewbox="0 0 446 449"
x="0px" 
y="0px"
style=" width:700px; height:700px;" 
id="myimg">


	 <polygon id="voiotia"points="155.55,203.65 159.55,206.85 168.55,202.75 174.55,205.65 178.55,206.15 183.05,204.55 186.45,208.15 192.649,205.55 194.351,207.25 196.25,208.45 195.649,208.95 192.25,209.75 194.55,210.35 197.45,209.35 198.149,209.95 200.351,210.35 202.95,211.65 204.75,209.55 205.649,210.35 207.05,212.25 206.05,213.35 207.55,214.55 207.55,215.15 208.95,216.85 209.149,218.55 209.95,219.35 208.95,226.75 208.95,230.15 207.351,231.45 202.55,232.75 199.649,229.35 196.75,226.85 196.45,225.35 193.649,225.35 192.851,227.35 192.851,229.85 191.45,231.15 188.25,230.05 188.149,232.05 185.149,231.05 183.95,231.05 183.351,229.35 182.25,229.75 181.149,230.85 179.55,230.55 179.351,228.95 174.149,227.75 173.55,228.35 175.149,228.55 175.55,229.15 172.45,229.15 172.25,227.35 166.45,226.25 166.05,225.75 167.25,224.35 166.851,223.35 165.75,223.35 162.05,220.65 162.05,217.75 161.149,216.85 160.149,217.25 156.55,212.95 153.351,204.95"/>
	 <polygon  id="fokida" points="155.55,203.65 156.351,201.55 150.75,195.45 145.05,193.35 145.05,191.95 143.95,190.15 140.75,191.95 134.851,194.25 131.45,192.15 128.25,201.35 130.351,204.05 130.351,206.15 125.05,209.35 122.851,216.65 124.75,215.75 127.149,215.35 130.55,215.75 133.45,217.25 137.55,220.15 141.149,218.15 142.45,219.15 143.25,218.95 146.851,219.55 148.05,218.05 147.25,216.25 148.45,215.35 148.649,213.25 149.649,213.65 152.351,215.85 153.05,216.85 153.95,218.05 154.75,219.15 154.351,220.15 155.95,222.95 156.851,222.95 158.25,221.25 157.45,220.15 159.05,218.35 159.75,218.75 160.149,217.25 156.55,212.95 153.351,204.95"/>
	 <polygon id="evrytanias" points="102.25,165.25 104.25,164.15 105.05,162.85 105.95,161.55 106.45,163.05 107.55,161.55 109.351,162.55 110.95,161.25 111.95,160.95 112.95,160.45 113.05,159.15 113.851,158.65 115.649,158.85 116.95,159.35 118.149,159.65 119.25,160.25 119.05,161.05 118.75,162.25 119.851,163.65 121.05,164.35 121.649,163.65 122.649,163.95 123.75,165.25 124.75,165.45 126.351,167.05 125.851,169.65 127.351,170.25 127.649,172.25 127.851,172.95 123.351,176.15 123.55,182.25 126.95,187.05 127.851,191.05 126.95,193.25 123.851,192.85 121.95,196.25 120.05,196.25 119.25,194.95 112.351,194.45 110.05,192.05 110.05,186.55 112.351,185.15 111.351,183.85 107.45,181.95 105.351,178.95 101.851,176.85 100.851,174.75 103.55,170.55"/>

	
		
</svg>


